<svg xmlns="http://www.w3.org/2000/svg" viewBox="0 0 860 860" role="img" aria-labelledby="icono-titulo">
  <title id="icono-titulo">ViandaSegura</title>
  <rect width="860" height="860" rx="190" fill="#162B4E"/>
  <g transform="translate(76 80) scale(.82)">
    <g fill="none" stroke="#D0B178" stroke-width="58" stroke-linejoin="round" stroke-linecap="round">
      <path d="M40 778H822"/>
      <path d="M118 778V252L226 110H340"/>
      <path d="M550 110H650L752 252V778"/>
      <path d="M118 278L445 316L752 270"/>
      <path d="M445 260V330"/>
      <path d="M445 490V778"/>
      <path d="M118 560L370 470"/>
      <path d="M512 470L752 640"/>
    </g>
    <circle cx="445" cy="410" r="56" fill="none" stroke="#D0B178" stroke-width="54"/>
    <circle cx="445" cy="410" r="30" fill="#3E8036"/>
    <path fill="#D0B178" d="M445 268C445 268 376 190 376 136A69 69 0 0 1 514 136C514 190 445 268 445 268Z"/>
    <circle cx="445" cy="134" r="27" fill="#162B4E"/>
  </g>
</svg>
